# xmcd CD database file
#
# Track frame offsets:
#	183
#	14653
#	29245
#	43970
#	77450
#	90155
#	95193
#	112645
#	126538
#	139950
#	143320
#	158020
#	173445
#	188520
#
# Disc length: 2727 seconds
#
# Revision: 0
# Processed by: cddbd v1.4PL0 Copyright (c) Steve Scherf et al.
# Submitted via: CDex 1.50
#
DISCID=ae0aa50e
DTITLE=Benny Goodman - Greatest Jazz
DYEAR=1900
DGENRE=Jazz
TTITLE0=Down South Camp Meetin'
TTITLE1=And The Angels Sing
TTITLE2=Good-Bye
TTITLE3=Sing,Sing,Sing
TTITLE4=Bugle Call Rug
TTITLE5=Shine
TTITLE6=One O'clock Jump
TTITLE7=Don't Be That Way
TTITLE8=It's Been So Long
TTITLE9=Let's Dance
TTITLE10=Avalon
TTITLE11=Moonglow
TTITLE12=Memories Of You
TTITLE13=China Boy
EXTD=
EXTT0=
EXTT1=
EXTT2=
EXTT3=
EXTT4=
EXTT5=
EXTT6=
EXTT7=
EXTT8=
EXTT9=
EXTT10=
EXTT11=
EXTT12=
EXTT13=
PLAYORDER=
